<mxfile host="app.diagrams.net" modified="2024-04-14T12:53:17.946Z" agent="Mozilla/5.0 (Windows NT 10.0; Win64; x64) AppleWebKit/537.36 (KHTML, like Gecko) Chrome/123.0.0.0 Safari/537.36" etag="F3St9prAb8yJ1unU5Itk" version="23.1.1" type="github">
  <diagram name="第 1 页" id="2OD272j1DlIUP-gPjMWr">
    <mxGraphModel dx="1221" dy="777" grid="1" gridSize="10" guides="1" tooltips="1" connect="1" arrows="1" fold="1" page="1" pageScale="1" pageWidth="827" pageHeight="1169" math="0" shadow="0">
      <root>
        <mxCell id="0" />
        <mxCell id="1" parent="0" />
        <mxCell id="hkwD9U1pVoPyA1WP-bFY-7" style="edgeStyle=orthogonalEdgeStyle;rounded=0;orthogonalLoop=1;jettySize=auto;html=1;" edge="1" parent="1" source="hkwD9U1pVoPyA1WP-bFY-1" target="hkwD9U1pVoPyA1WP-bFY-5">
          <mxGeometry relative="1" as="geometry" />
        </mxCell>
        <mxCell id="hkwD9U1pVoPyA1WP-bFY-15" value="commit log" style="edgeLabel;html=1;align=center;verticalAlign=middle;resizable=0;points=[];" vertex="1" connectable="0" parent="hkwD9U1pVoPyA1WP-bFY-7">
          <mxGeometry x="-0.119" y="-1" relative="1" as="geometry">
            <mxPoint as="offset" />
          </mxGeometry>
        </mxCell>
        <mxCell id="hkwD9U1pVoPyA1WP-bFY-9" style="rounded=0;orthogonalLoop=1;jettySize=auto;html=1;" edge="1" parent="1" source="hkwD9U1pVoPyA1WP-bFY-1" target="hkwD9U1pVoPyA1WP-bFY-4">
          <mxGeometry relative="1" as="geometry" />
        </mxCell>
        <mxCell id="hkwD9U1pVoPyA1WP-bFY-16" value="commit log" style="edgeLabel;html=1;align=center;verticalAlign=middle;resizable=0;points=[];" vertex="1" connectable="0" parent="hkwD9U1pVoPyA1WP-bFY-9">
          <mxGeometry x="0.0388" y="-2" relative="1" as="geometry">
            <mxPoint as="offset" />
          </mxGeometry>
        </mxCell>
        <mxCell id="hkwD9U1pVoPyA1WP-bFY-1" value="leader" style="ellipse;whiteSpace=wrap;html=1;" vertex="1" parent="1">
          <mxGeometry x="160" y="190" width="120" height="80" as="geometry" />
        </mxCell>
        <mxCell id="hkwD9U1pVoPyA1WP-bFY-2" value="follower1" style="ellipse;whiteSpace=wrap;html=1;" vertex="1" parent="1">
          <mxGeometry x="370" y="50" width="120" height="80" as="geometry" />
        </mxCell>
        <mxCell id="hkwD9U1pVoPyA1WP-bFY-3" value="follower3" style="ellipse;whiteSpace=wrap;html=1;" vertex="1" parent="1">
          <mxGeometry x="380" y="330" width="120" height="80" as="geometry" />
        </mxCell>
        <mxCell id="hkwD9U1pVoPyA1WP-bFY-4" value="follower4" style="ellipse;whiteSpace=wrap;html=1;" vertex="1" parent="1">
          <mxGeometry x="210" y="400" width="120" height="80" as="geometry" />
        </mxCell>
        <mxCell id="hkwD9U1pVoPyA1WP-bFY-5" value="follower2" style="ellipse;whiteSpace=wrap;html=1;" vertex="1" parent="1">
          <mxGeometry x="420" y="190" width="120" height="80" as="geometry" />
        </mxCell>
        <mxCell id="hkwD9U1pVoPyA1WP-bFY-6" style="rounded=0;orthogonalLoop=1;jettySize=auto;html=1;exitX=1;exitY=0;exitDx=0;exitDy=0;entryX=0.083;entryY=0.875;entryDx=0;entryDy=0;entryPerimeter=0;" edge="1" parent="1" source="hkwD9U1pVoPyA1WP-bFY-1" target="hkwD9U1pVoPyA1WP-bFY-2">
          <mxGeometry relative="1" as="geometry" />
        </mxCell>
        <mxCell id="hkwD9U1pVoPyA1WP-bFY-14" value="commit log" style="edgeLabel;html=1;align=center;verticalAlign=middle;resizable=0;points=[];" vertex="1" connectable="0" parent="hkwD9U1pVoPyA1WP-bFY-6">
          <mxGeometry x="0.0317" y="1" relative="1" as="geometry">
            <mxPoint as="offset" />
          </mxGeometry>
        </mxCell>
        <mxCell id="hkwD9U1pVoPyA1WP-bFY-8" style="rounded=0;orthogonalLoop=1;jettySize=auto;html=1;exitX=1;exitY=1;exitDx=0;exitDy=0;entryX=0.095;entryY=0.226;entryDx=0;entryDy=0;entryPerimeter=0;" edge="1" parent="1" source="hkwD9U1pVoPyA1WP-bFY-1" target="hkwD9U1pVoPyA1WP-bFY-3">
          <mxGeometry relative="1" as="geometry" />
        </mxCell>
        <mxCell id="hkwD9U1pVoPyA1WP-bFY-13" value="X" style="edgeLabel;html=1;align=center;verticalAlign=middle;resizable=0;points=[];" vertex="1" connectable="0" parent="hkwD9U1pVoPyA1WP-bFY-8">
          <mxGeometry x="0.0034" y="-1" relative="1" as="geometry">
            <mxPoint as="offset" />
          </mxGeometry>
        </mxCell>
        <mxCell id="hkwD9U1pVoPyA1WP-bFY-17" style="edgeStyle=orthogonalEdgeStyle;rounded=0;orthogonalLoop=1;jettySize=auto;html=1;exitX=1;exitY=0;exitDx=0;exitDy=0;entryX=1;entryY=1;entryDx=0;entryDy=0;curved=1;" edge="1" parent="1" source="hkwD9U1pVoPyA1WP-bFY-2" target="hkwD9U1pVoPyA1WP-bFY-2">
          <mxGeometry relative="1" as="geometry" />
        </mxCell>
        <mxCell id="hkwD9U1pVoPyA1WP-bFY-20" value="apply log" style="edgeLabel;html=1;align=center;verticalAlign=middle;resizable=0;points=[];" vertex="1" connectable="0" parent="hkwD9U1pVoPyA1WP-bFY-17">
          <mxGeometry x="-0.0541" y="4" relative="1" as="geometry">
            <mxPoint as="offset" />
          </mxGeometry>
        </mxCell>
        <mxCell id="hkwD9U1pVoPyA1WP-bFY-18" style="edgeStyle=orthogonalEdgeStyle;rounded=0;orthogonalLoop=1;jettySize=auto;html=1;exitX=1;exitY=0;exitDx=0;exitDy=0;entryX=1;entryY=1;entryDx=0;entryDy=0;curved=1;" edge="1" parent="1" source="hkwD9U1pVoPyA1WP-bFY-5" target="hkwD9U1pVoPyA1WP-bFY-5">
          <mxGeometry relative="1" as="geometry" />
        </mxCell>
        <mxCell id="hkwD9U1pVoPyA1WP-bFY-21" value="apply log" style="edgeLabel;html=1;align=center;verticalAlign=middle;resizable=0;points=[];" vertex="1" connectable="0" parent="hkwD9U1pVoPyA1WP-bFY-18">
          <mxGeometry x="0.0077" y="-2" relative="1" as="geometry">
            <mxPoint as="offset" />
          </mxGeometry>
        </mxCell>
        <mxCell id="hkwD9U1pVoPyA1WP-bFY-19" style="edgeStyle=orthogonalEdgeStyle;rounded=0;orthogonalLoop=1;jettySize=auto;html=1;exitX=1;exitY=0;exitDx=0;exitDy=0;entryX=1;entryY=1;entryDx=0;entryDy=0;curved=1;" edge="1" parent="1" source="hkwD9U1pVoPyA1WP-bFY-4" target="hkwD9U1pVoPyA1WP-bFY-4">
          <mxGeometry relative="1" as="geometry" />
        </mxCell>
        <mxCell id="hkwD9U1pVoPyA1WP-bFY-22" value="apply log" style="edgeLabel;html=1;align=center;verticalAlign=middle;resizable=0;points=[];" vertex="1" connectable="0" parent="hkwD9U1pVoPyA1WP-bFY-19">
          <mxGeometry x="0.0619" relative="1" as="geometry">
            <mxPoint as="offset" />
          </mxGeometry>
        </mxCell>
      </root>
    </mxGraphModel>
  </diagram>
</mxfile>
